<svg width="82" height="101" viewBox="0 0 82 101" fill="none" xmlns="http://www.w3.org/2000/svg">
<path fill-rule="evenodd" clip-rule="evenodd" d="M60.7973 5.53466C48.1082 -1.96582 32.5112 -1.83472 19.9412 5.87806C7.49476 13.7479 -0.0698624 27.7933 0.000595093 42.9023C0.290291 57.9121 8.40173 72.0213 18.541 82.9284C24.3931 89.2521 30.9398 94.8438 38.0471 99.5893C38.7791 100.02 39.5809 100.308 40.4129 100.44C41.2137 100.405 41.9936 100.164 42.6822 99.7394C53.533 92.6089 63.0524 83.5071 70.7825 72.8719C77.2509 63.9942 80.9258 53.2686 81.3081 42.1518C81.3165 27.0139 73.4864 13.0351 60.7973 5.53466ZM53.4629 48.4172C51.3284 53.7704 46.2902 57.2622 40.7007 57.2622C37.0389 57.2889 33.519 55.7968 30.9251 53.1183C28.3312 50.4398 26.879 46.7975 26.892 43.0029C26.8724 37.2108 30.2244 31.9777 35.3828 29.7471C40.5412 27.5165 46.4885 28.7284 50.4478 32.8169C54.4071 36.9054 55.5974 43.064 53.4629 48.4172Z" fill="#333333"/>
</svg>
