<svg width="90" height="109" viewBox="0 0 90 109" fill="none" xmlns="http://www.w3.org/2000/svg">
<path d="M24.4517 9.87806L22.314 6.49721L22.3368 6.4828L22.3598 6.4687L24.4517 9.87806ZM65.3078 9.53466L63.2724 12.9781L63.2724 12.9781L65.3078 9.53466ZM4.51109 46.9023L0.511838 46.9795L0.511273 46.9502L0.511137 46.9209L4.51109 46.9023ZM23.0515 86.9284L25.9812 84.205L25.9873 84.2116L23.0515 86.9284ZM42.5576 103.589L40.5295 107.037L40.4312 106.979L40.3364 106.916L42.5576 103.589ZM44.9234 104.44L45.0965 108.436L44.695 108.454L44.298 108.391L44.9234 104.44ZM47.1927 103.739L49.3894 107.082L49.342 107.113L49.2937 107.143L47.1927 103.739ZM75.293 76.8719L72.0574 74.5201L72.0601 74.5164L75.293 76.8719ZM85.8186 46.1518L89.8186 46.154L89.8186 46.2217L89.8162 46.2893L85.8186 46.1518ZM45.211 61.2622L45.1818 57.2623L45.1964 57.2622L45.211 57.2622L45.211 61.2622ZM57.9732 52.4172L54.2576 50.9357L54.2576 50.9357L57.9732 52.4172ZM35.4353 57.1183L32.5619 59.901L32.5619 59.901L35.4353 57.1183ZM31.4022 47.0029L35.4022 46.9894L35.4023 47.003L35.4022 47.0166L31.4022 47.0029ZM39.8931 33.7471L41.4807 37.4186L41.4807 37.4186L39.8931 33.7471ZM54.9581 36.8169L52.0846 39.5996L52.0846 39.5996L54.9581 36.8169ZM22.3598 6.4687C36.1922 -2.01869 53.3774 -2.16388 67.3432 6.09123L63.2724 12.9781C51.86 6.23224 37.8513 6.34924 26.5437 13.2874L22.3598 6.4687ZM0.511137 46.9209C0.434455 30.4773 8.66611 15.1267 22.314 6.49721L26.5894 13.2589C15.3444 20.3691 8.44682 33.1094 8.51105 46.8836L0.511137 46.9209ZM20.1219 89.6519C9.62507 78.3602 0.827817 63.3511 0.511838 46.9795L8.51035 46.8251C8.77376 60.4731 16.1994 73.6825 25.9812 84.205L20.1219 89.6519ZM40.3364 106.916C32.9656 101.994 26.1795 96.1976 20.1158 89.6453L25.9873 84.2116C31.6277 90.3065 37.9349 95.6931 44.7788 100.263L40.3364 106.916ZM44.298 108.391C42.9669 108.18 41.6898 107.72 40.5295 107.037L44.5857 100.142C44.8893 100.32 45.2158 100.436 45.5488 100.489L44.298 108.391ZM49.2937 107.143C48.0295 107.924 46.5869 108.372 45.0965 108.436L44.7504 100.444C44.8616 100.439 44.9787 100.405 45.0917 100.336L49.2937 107.143ZM78.5287 79.2236C70.5185 90.2442 60.6486 99.6834 49.3894 107.082L44.996 100.397C55.4384 93.5345 64.6073 84.7701 72.0574 74.5201L78.5287 79.2236ZM89.8162 46.2893C89.4068 58.1945 85.4715 69.6947 78.5259 79.2274L72.0601 74.5164C78.0513 66.2936 81.4657 56.3428 81.821 46.0143L89.8162 46.2893ZM67.3432 6.09123C81.2905 14.3354 89.8278 29.6479 89.8186 46.154L81.8186 46.1496C81.8262 32.3799 74.7033 19.7348 63.2724 12.9781L67.3432 6.09123ZM45.211 57.2622C49.097 57.2622 52.7046 54.8306 54.2576 50.9357L61.6887 53.8987C58.9728 60.7102 52.504 65.2621 45.211 65.2622L45.211 57.2622ZM38.3088 54.3357C40.1578 56.245 42.6355 57.2809 45.1818 57.2623L45.2402 65.2621C40.4629 65.297 35.9006 63.3487 32.5619 59.901L38.3088 54.3357ZM35.4022 47.0166C35.3927 49.7884 36.455 52.4214 38.3088 54.3357L32.5619 59.901C29.2279 56.4583 27.3858 51.8065 27.4023 46.9892L35.4022 47.0166ZM41.4807 37.4186C37.849 38.989 35.3878 42.7335 35.4022 46.9894L27.4023 47.0164C27.3775 39.688 31.6203 32.9665 38.3055 30.0757L41.4807 37.4186ZM52.0846 39.5996C49.263 36.6859 45.0861 35.8595 41.4807 37.4186L38.3055 30.0757C45.0169 27.1736 52.7345 28.7709 57.8315 34.0342L52.0846 39.5996ZM54.2576 50.9357C55.8182 47.0217 54.9302 42.538 52.0846 39.5996L57.8315 34.0342C62.9045 39.2727 64.397 47.1063 61.6887 53.8987L54.2576 50.9357Z" fill="#333333"/>
</svg>
