<svg width="101" height="101" viewBox="0 0 101 101" fill="none" xmlns="http://www.w3.org/2000/svg">
<path fill-rule="evenodd" clip-rule="evenodd" d="M41.1395 82.0751C63.8602 82.0751 82.2789 63.7019 82.2789 41.0375C82.2789 18.3731 63.8602 0 41.1395 0C18.4188 0 0 18.3731 0 41.0375C0 63.7019 18.4188 82.0751 41.1395 82.0751ZM41.1395 72.4191C58.5142 72.4191 72.5991 58.369 72.5991 41.0374C72.5991 23.7058 58.5142 9.65579 41.1395 9.65579C23.7649 9.65579 9.67995 23.7058 9.67995 41.0374C9.67995 58.369 23.7649 72.4191 41.1395 72.4191Z" fill="#333333"/>
<rect width="9.66802" height="43.5049" transform="matrix(0.711649 -0.702535 0.704298 0.709904 62.9192 69.5556)" fill="#333333"/>
</svg>
