<svg width="102" height="101" viewBox="0 0 102 101" fill="none" xmlns="http://www.w3.org/2000/svg">
<path d="M45.5308 2.62503L2.76176 38.9787C1.64411 39.9287 1 41.3215 1 42.7884V95C1 97.7614 3.23858 100 6 100H34.0952C36.8567 100 39.0952 97.7614 39.0952 95V71.6667C39.0952 68.9052 41.3338 66.6667 44.0952 66.6667H57.9048C60.6662 66.6667 62.9048 68.9052 62.9048 71.6667V95C62.9048 97.7614 65.1433 100 67.9048 100H96C98.7614 100 101 97.7614 101 95V42.9314C101 41.3829 100.283 39.9218 99.0572 38.975L51.8263 2.4783C49.9567 1.03362 47.331 1.09482 45.5308 2.62503Z" fill="#333333" stroke="#333333"/>
</svg>
