<svg width="100" height="99" viewBox="0 0 100 99" fill="none" xmlns="http://www.w3.org/2000/svg">
<path d="M4.35235 41.0265L47.1214 4.67278C47.4814 4.36675 48.0065 4.3545 48.3805 4.64344L95.6114 41.1401C95.8565 41.3295 96 41.6217 96 41.9314V94C96 94.5523 95.5523 95 95 95H66.9048C66.3525 95 65.9048 94.5523 65.9048 94V70.6667C65.9048 65.6961 61.8753 61.6667 56.9048 61.6667H43.0952C38.1247 61.6667 34.0952 65.6961 34.0952 70.6667V94C34.0952 94.5523 33.6475 95 33.0952 95H5C4.44772 95 4 94.5523 4 94V41.7884C4 41.495 4.12882 41.2165 4.35235 41.0265Z" stroke="#333333" stroke-width="8"/>
</svg>
