<svg width="105" height="97" viewBox="0 0 105 97" fill="none" xmlns="http://www.w3.org/2000/svg">
<path d="M88.5882 62.3953H29.4164C28.954 62.3953 28.5519 62.0783 28.444 61.6287L17.9767 18.0149H99.7409C100.397 18.0149 100.875 18.6353 100.708 19.2694L89.5553 61.6498C89.4397 62.0891 89.0425 62.3953 88.5882 62.3953Z" fill="#333333"/>
<path d="M0.598267 4H13.8247C14.2871 4 14.6892 4.31701 14.7971 4.76663L17.9767 18.0149M17.9767 18.0149L28.444 61.6287C28.5519 62.0783 28.954 62.3953 29.4164 62.3953H88.5882C89.0425 62.3953 89.4397 62.0891 89.5553 61.6498L100.708 19.2694C100.875 18.6353 100.397 18.0149 99.7409 18.0149H17.9767Z" stroke="#333333" stroke-width="8"/>
<circle cx="40.3069" cy="83.4175" r="9.34324" fill="#333333" stroke="#333333" stroke-width="8"/>
<circle cx="82.3518" cy="83.4175" r="9.34324" fill="#333333" stroke="#333333" stroke-width="8"/>
</svg>
